<svg width="64" height="64" viewBox="0 0 64 64" version="1.1" xmlns="http://www.w3.org/2000/svg" xmlns:xlink="http://www.w3.org/1999/xlink" xmlns:figma="http://www.figma.com/figma/ns">
<title>App Logo - Squircle</title>
<desc>Created using Figma</desc>
<g id="Canvas" transform="translate(356 213)" figma:type="canvas">
<g id="App Logo - Squircle" figma:type="symbol">
<mask id="mask0_alpha" mask-type="alpha">
<g id="squircle" figma:type="vector">
<use xlink:href="#path0_fill" transform="translate(-356 -213)" fill="#FFFFFF"/>
</g>
</mask>
<g id="Group" mask="url(#mask0_alpha)" figma:type="frame">
<g id="Rectangle" figma:type="rounded-rectangle">
<use xlink:href="#path1_fill" transform="translate(-356 -213)" fill="#48A7F9"/>
</g>
<g id="Rectangle" figma:type="vector">
<use xlink:href="#path2_fill" transform="translate(-340 -213)" fill="#1385E8"/>
</g>
<g id="Rectangle" figma:type="vector">
<use xlink:href="#path3_fill" transform="translate(-324 -213)" fill="#0E589A"/>
</g>
</g>
</g>
</g>
<defs>
<path id="path0_fill" d="M 54.8889 4.44444C 48.8889 0.608239 40 0 32 0C 24 0 15.1111 0.608239 9.11111 4.44444C 7.19207 5.67142 5.67142 7.19207 4.44444 9.11111C 0.608239 15.1111 0 24 0 32C 0 40 0.608239 48.8889 4.44444 54.8889C 5.67142 56.8079 7.19207 58.3286 9.11111 59.5556C 15.1111 63.3918 24 64 32 64C 40 64 48.8889 63.3918 54.8889 59.5556C 56.8079 58.3286 58.3286 56.8079 59.5556 54.8889C 63.3918 48.8889 64 40 64 32C 64 24 63.3918 15.1111 59.5556 9.11111C 58.3286 7.19207 56.8079 5.67142 54.8889 4.44444Z"/>
<path id="path1_fill" d="M 0 0L 64 0L 64 64L 0 64L 0 0Z"/>
<path id="path2_fill" d="M 0 0L 48 0L 48 64L 0 64L 0 0Z"/>
<path id="path3_fill" d="M 0 0L 32 0L 32 64L 0 64L 0 0Z"/>
</defs>
</svg>
