<svg width="423" height="32" viewBox="0 0 423 32" version="1.1" xmlns="http://www.w3.org/2000/svg" xmlns:xlink="http://www.w3.org/1999/xlink" xmlns:figma="http://www.figma.com/figma/ns">
<title>Wordmark</title>
<desc>Created using Figma</desc>
<g id="Canvas" transform="translate(-172 0)" figma:type="canvas">
<mask id="mask0_alpha" mask-type="alpha">
<path d="M 172 0L 595 0L 595 32L 172 32L 172 0Z" fill="#FFFFFF"/>
</mask>
<g id="Wordmark" mask="url(#mask0_alpha)" figma:type="symbol">
<g id="Logo" figma:type="instance">
<g id="Rectangle" figma:type="rounded-rectangle">
<use xlink:href="#path0_fill" transform="translate(172 0)" fill="#48A7F9"/>
</g>
<g id="Rectangle" figma:type="vector">
<use xlink:href="#path1_fill" transform="translate(188 0)" fill="#1385E8"/>
</g>
<g id="Rectangle" figma:type="vector">
<use xlink:href="#path2_fill" transform="translate(204 0)" fill="#0E589A"/>
</g>
</g>
<g id="Responsive CTA Builder" figma:type="text">
<use xlink:href="#path3_fill" transform="translate(244 0)"/>
</g>
</g>
</g>
<defs>
<path id="path0_fill" d="M 0 3C 0 1.34315 1.34315 0 3 0L 61 0C 62.6569 0 64 1.34315 64 3L 64 13C 64 14.6569 62.6569 16 61 16L 3 16C 1.34315 16 0 14.6569 0 13L 0 3Z"/>
<path id="path1_fill" d="M 0 0L 45 0C 46.6569 0 48 1.34315 48 3L 48 21C 48 22.6569 46.6569 24 45 24L 3 24C 1.34315 24 0 22.6569 0 21L 0 0Z"/>
<path id="path2_fill" d="M 0 0L 29 0C 30.6569 0 32 1.34315 32 3L 32 29C 32 30.6569 30.6569 32 29 32L 3 32C 1.34315 32 0 30.6569 0 29L 0 0Z"/>
<path id="path3_fill" d="M 5.92 26L 2.752 26L 2.752 3.344L 10.016 3.344C 11.104 3.344 12.1387 3.46133 13.12 3.696C 14.1013 3.90933 14.9547 4.26133 15.68 4.752C 16.4267 5.24267 17.0133 5.89333 17.44 6.704C 17.8667 7.49333 18.08 8.464 18.08 9.616C 18.08 11.28 17.568 12.624 16.544 13.648C 15.52 14.672 14.1973 15.3227 12.576 15.6L 18.912 26L 15.072 26L 9.312 15.92L 5.92 15.92L 5.92 26ZM 5.92 13.264L 9.568 13.264C 10.3147 13.264 11.008 13.2 11.648 13.072C 12.288 12.944 12.8427 12.7413 13.312 12.464C 13.8027 12.1653 14.1867 11.792 14.464 11.344C 14.7413 10.8747 14.88 10.2987 14.88 9.616C 14.88 8.93333 14.7413 8.368 14.464 7.92C 14.1867 7.45067 13.8133 7.07733 13.344 6.8C 12.896 6.52267 12.3627 6.33067 11.744 6.224C 11.1253 6.096 10.4747 6.032 9.792 6.032L 5.92 6.032L 5.92 13.264ZM 32.9773 17.072C 32.9559 16.4747 32.8492 15.92 32.6573 15.408C 32.4866 14.8747 32.2199 14.416 31.8573 14.032C 31.5159 13.648 31.0786 13.3493 30.5452 13.136C 30.0332 12.9013 29.4253 12.784 28.7212 12.784C 28.0813 12.784 27.4733 12.9013 26.8973 13.136C 26.3426 13.3493 25.8519 13.648 25.4253 14.032C 25.0199 14.416 24.6786 14.8747 24.4012 15.408C 24.1452 15.92 23.9959 16.4747 23.9532 17.072L 32.9773 17.072ZM 36.0173 18.288C 36.0173 18.4587 36.0173 18.6293 36.0173 18.8C 36.0173 18.9707 36.0066 19.1413 35.9853 19.312L 23.9532 19.312C 23.9746 19.952 24.1132 20.56 24.3692 21.136C 24.6466 21.6907 25.0093 22.1813 25.4573 22.608C 25.9053 23.0133 26.4173 23.3333 26.9932 23.568C 27.5906 23.8027 28.2199 23.92 28.8813 23.92C 29.9052 23.92 30.7906 23.696 31.5372 23.248C 32.2839 22.8 32.8706 22.256 33.2972 21.616L 35.4093 23.312C 34.5986 24.3787 33.6386 25.168 32.5293 25.68C 31.4412 26.1707 30.2253 26.416 28.8813 26.416C 27.7292 26.416 26.6626 26.224 25.6813 25.84C 24.6999 25.456 23.8573 24.9227 23.1532 24.24C 22.4492 23.536 21.8946 22.6933 21.4892 21.712C 21.0839 20.7307 20.8813 19.6427 20.8813 18.448C 20.8813 17.2747 21.0733 16.1973 21.4573 15.216C 21.8626 14.2133 22.4172 13.36 23.1212 12.656C 23.8253 11.952 24.6572 11.408 25.6172 11.024C 26.5773 10.6187 27.6119 10.416 28.7212 10.416C 29.8306 10.416 30.8333 10.5973 31.7292 10.96C 32.6466 11.3227 33.4146 11.8453 34.0332 12.528C 34.6733 13.2107 35.1639 14.0427 35.5053 15.024C 35.8466 15.984 36.0173 17.072 36.0173 18.288ZM 48.409 14.672C 48.0677 14.1173 47.5877 13.6693 46.969 13.328C 46.3503 12.9653 45.657 12.784 44.889 12.784C 44.5477 12.784 44.2063 12.8267 43.865 12.912C 43.5237 12.976 43.2143 13.0933 42.937 13.264C 42.681 13.4133 42.4677 13.616 42.297 13.872C 42.1477 14.1067 42.073 14.4053 42.073 14.768C 42.073 15.408 42.361 15.888 42.937 16.208C 43.513 16.5067 44.377 16.784 45.529 17.04C 46.2543 17.2107 46.9263 17.4133 47.545 17.648C 48.1637 17.8827 48.697 18.1813 49.145 18.544C 49.6143 18.8853 49.977 19.3013 50.233 19.792C 50.489 20.2827 50.617 20.8587 50.617 21.52C 50.617 22.416 50.4463 23.1733 50.105 23.792C 49.7637 24.4107 49.305 24.9227 48.729 25.328C 48.1743 25.712 47.5343 25.9893 46.809 26.16C 46.0837 26.3307 45.337 26.416 44.569 26.416C 43.417 26.416 42.2863 26.192 41.177 25.744C 40.089 25.296 39.1823 24.6133 38.457 23.696L 40.601 21.872C 41.0063 22.4693 41.561 22.9707 42.265 23.376C 42.9903 23.7813 43.7797 23.984 44.633 23.984C 45.017 23.984 45.3797 23.952 45.721 23.888C 46.0837 23.8027 46.4037 23.6747 46.681 23.504C 46.9797 23.3333 47.2143 23.1093 47.385 22.832C 47.5557 22.5547 47.641 22.2027 47.641 21.776C 47.641 21.072 47.2997 20.5493 46.617 20.208C 45.9557 19.8667 44.9743 19.5467 43.673 19.248C 43.161 19.12 42.6383 18.9707 42.105 18.8C 41.593 18.608 41.1237 18.352 40.697 18.032C 40.2703 17.712 39.9183 17.3173 39.641 16.848C 39.385 16.3573 39.257 15.76 39.257 15.056C 39.257 14.2453 39.417 13.552 39.737 12.976C 40.0783 12.3787 40.5157 11.8987 41.049 11.536C 41.5823 11.152 42.1903 10.8747 42.873 10.704C 43.5557 10.512 44.2597 10.416 44.985 10.416C 46.073 10.416 47.1183 10.6293 48.121 11.056C 49.145 11.4827 49.9343 12.1013 50.489 12.912L 48.409 14.672ZM 57.4437 33.68L 54.4358 33.68L 54.4358 10.832L 57.3797 10.832L 57.3797 13.2L 57.4757 13.2C 57.9664 12.3893 58.6811 11.728 59.6198 11.216C 60.5798 10.6827 61.6891 10.416 62.9478 10.416C 64.0784 10.416 65.1024 10.6187 66.0197 11.024C 66.9584 11.4293 67.7584 11.9947 68.4198 12.72C 69.1024 13.4453 69.6251 14.2987 69.9877 15.28C 70.3504 16.24 70.5317 17.2747 70.5317 18.384C 70.5317 19.4933 70.3504 20.5387 69.9877 21.52C 69.6251 22.5013 69.1131 23.3547 68.4517 24.08C 67.7904 24.8053 66.9904 25.3813 66.0518 25.808C 65.1131 26.2133 64.0571 26.416 62.8837 26.416C 61.7957 26.416 60.7718 26.1813 59.8117 25.712C 58.8517 25.2427 58.0944 24.5813 57.5398 23.728L 57.4437 23.728L 57.4437 33.68ZM 67.4277 18.384C 67.4277 17.68 67.3211 16.9973 67.1077 16.336C 66.8944 15.6747 66.5744 15.088 66.1477 14.576C 65.7211 14.064 65.1877 13.6587 64.5478 13.36C 63.9291 13.0613 63.2037 12.912 62.3717 12.912C 61.6038 12.912 60.8997 13.0613 60.2598 13.36C 59.6411 13.6587 59.1077 14.064 58.6597 14.576C 58.2118 15.088 57.8597 15.6747 57.6038 16.336C 57.3691 16.9973 57.2517 17.6907 57.2517 18.416C 57.2517 19.1413 57.3691 19.8347 57.6038 20.496C 57.8597 21.1573 58.2118 21.744 58.6597 22.256C 59.1077 22.7467 59.6411 23.1413 60.2598 23.44C 60.8997 23.7387 61.6038 23.888 62.3717 23.888C 63.2037 23.888 63.9291 23.7387 64.5478 23.44C 65.1877 23.12 65.7211 22.704 66.1477 22.192C 66.5744 21.68 66.8944 21.0933 67.1077 20.432C 67.3211 19.7707 67.4277 19.088 67.4277 18.384ZM 90.077 18.384C 90.077 19.5573 89.8637 20.6347 89.437 21.616C 89.0317 22.5973 88.4557 23.4507 87.709 24.176C 86.9837 24.88 86.1197 25.4347 85.117 25.84C 84.1143 26.224 83.037 26.416 81.885 26.416C 80.733 26.416 79.6557 26.224 78.653 25.84C 77.6503 25.4347 76.7863 24.88 76.061 24.176C 75.3357 23.4507 74.7597 22.5973 74.333 21.616C 73.9277 20.6347 73.725 19.5573 73.725 18.384C 73.725 17.2107 73.9277 16.144 74.333 15.184C 74.7597 14.2027 75.3357 13.36 76.061 12.656C 76.7863 11.952 77.6503 11.408 78.653 11.024C 79.6557 10.6187 80.733 10.416 81.885 10.416C 83.037 10.416 84.1143 10.6187 85.117 11.024C 86.1197 11.408 86.9837 11.952 87.709 12.656C 88.4557 13.36 89.0317 14.2027 89.437 15.184C 89.8637 16.144 90.077 17.2107 90.077 18.384ZM 86.941 18.384C 86.941 17.6587 86.8237 16.9653 86.589 16.304C 86.3757 15.6427 86.0557 15.0667 85.629 14.576C 85.2023 14.064 84.669 13.6587 84.029 13.36C 83.4103 13.0613 82.6957 12.912 81.885 12.912C 81.0743 12.912 80.349 13.0613 79.709 13.36C 79.0903 13.6587 78.5677 14.064 78.141 14.576C 77.7143 15.0667 77.3837 15.6427 77.149 16.304C 76.9357 16.9653 76.829 17.6587 76.829 18.384C 76.829 19.1093 76.9357 19.8027 77.149 20.464C 77.3837 21.1253 77.7143 21.712 78.141 22.224C 78.5677 22.736 79.0903 23.1413 79.709 23.44C 80.349 23.7387 81.0743 23.888 81.885 23.888C 82.6957 23.888 83.4103 23.7387 84.029 23.44C 84.669 23.1413 85.2023 22.736 85.629 22.224C 86.0557 21.712 86.3757 21.1253 86.589 20.464C 86.8237 19.8027 86.941 19.1093 86.941 18.384ZM 96.9682 10.832C 97.0109 11.216 97.0429 11.6533 97.0642 12.144C 97.0856 12.6133 97.0963 13.008 97.0963 13.328L 97.1922 13.328C 97.3843 12.9227 97.6403 12.5493 97.9602 12.208C 98.3016 11.8453 98.6856 11.536 99.1122 11.28C 99.5389 11.0027 100.008 10.7893 100.52 10.64C 101.032 10.4907 101.566 10.416 102.12 10.416C 103.102 10.416 103.944 10.5867 104.648 10.928C 105.352 11.248 105.939 11.6853 106.408 12.24C 106.878 12.7947 107.219 13.4453 107.432 14.192C 107.667 14.9387 107.784 15.7387 107.784 16.592L 107.784 26L 104.776 26L 104.776 17.584C 104.776 16.9653 104.723 16.3787 104.616 15.824C 104.531 15.2693 104.36 14.7787 104.104 14.352C 103.848 13.9253 103.496 13.584 103.048 13.328C 102.6 13.072 102.024 12.944 101.32 12.944C 100.126 12.944 99.1442 13.4027 98.3762 14.32C 97.6296 15.216 97.2562 16.4213 97.2562 17.936L 97.2562 26L 94.2483 26L 94.2483 14.096C 94.2483 13.6907 94.2376 13.168 94.2162 12.528C 94.1949 11.888 94.1629 11.3227 94.1202 10.832L 96.9682 10.832ZM 121.065 14.672C 120.724 14.1173 120.244 13.6693 119.625 13.328C 119.007 12.9653 118.313 12.784 117.545 12.784C 117.204 12.784 116.863 12.8267 116.521 12.912C 116.18 12.976 115.871 13.0933 115.593 13.264C 115.337 13.4133 115.124 13.616 114.953 13.872C 114.804 14.1067 114.729 14.4053 114.729 14.768C 114.729 15.408 115.017 15.888 115.593 16.208C 116.169 16.5067 117.033 16.784 118.185 17.04C 118.911 17.2107 119.583 17.4133 120.201 17.648C 120.82 17.8827 121.353 18.1813 121.801 18.544C 122.271 18.8853 122.633 19.3013 122.889 19.792C 123.145 20.2827 123.273 20.8587 123.273 21.52C 123.273 22.416 123.103 23.1733 122.761 23.792C 122.42 24.4107 121.961 24.9227 121.385 25.328C 120.831 25.712 120.191 25.9893 119.465 26.16C 118.74 26.3307 117.993 26.416 117.225 26.416C 116.073 26.416 114.943 26.192 113.833 25.744C 112.745 25.296 111.839 24.6133 111.113 23.696L 113.257 21.872C 113.663 22.4693 114.217 22.9707 114.921 23.376C 115.647 23.7813 116.436 23.984 117.289 23.984C 117.673 23.984 118.036 23.952 118.377 23.888C 118.74 23.8027 119.06 23.6747 119.337 23.504C 119.636 23.3333 119.871 23.1093 120.041 22.832C 120.212 22.5547 120.297 22.2027 120.297 21.776C 120.297 21.072 119.956 20.5493 119.273 20.208C 118.612 19.8667 117.631 19.5467 116.329 19.248C 115.817 19.12 115.295 18.9707 114.761 18.8C 114.249 18.608 113.78 18.352 113.353 18.032C 112.927 17.712 112.575 17.3173 112.297 16.848C 112.041 16.3573 111.913 15.76 111.913 15.056C 111.913 14.2453 112.073 13.552 112.393 12.976C 112.735 12.3787 113.172 11.8987 113.705 11.536C 114.239 11.152 114.847 10.8747 115.529 10.704C 116.212 10.512 116.916 10.416 117.641 10.416C 118.729 10.416 119.775 10.6293 120.777 11.056C 121.801 11.4827 122.591 12.1013 123.145 12.912L 121.065 14.672ZM 130.132 26L 127.124 26L 127.124 10.832L 130.132 10.832L 130.132 26ZM 130.644 5.36C 130.644 5.91467 130.441 6.37333 130.036 6.736C 129.652 7.09867 129.183 7.28 128.628 7.28C 128.073 7.28 127.604 7.09867 127.22 6.736C 126.836 6.352 126.644 5.89333 126.644 5.36C 126.644 4.80533 126.836 4.34667 127.22 3.984C 127.604 3.6 128.073 3.408 128.628 3.408C 129.183 3.408 129.652 3.6 130.036 3.984C 130.441 4.34667 130.644 4.80533 130.644 5.36ZM 142.509 26L 139.245 26L 133.069 10.832L 136.397 10.832L 140.845 22.768L 140.909 22.768L 145.389 10.832L 148.589 10.832L 142.509 26ZM 162.602 17.072C 162.581 16.4747 162.474 15.92 162.282 15.408C 162.112 14.8747 161.845 14.416 161.482 14.032C 161.141 13.648 160.704 13.3493 160.17 13.136C 159.658 12.9013 159.05 12.784 158.346 12.784C 157.706 12.784 157.098 12.9013 156.522 13.136C 155.968 13.3493 155.477 13.648 155.05 14.032C 154.645 14.416 154.304 14.8747 154.026 15.408C 153.77 15.92 153.621 16.4747 153.578 17.072L 162.602 17.072ZM 165.642 18.288C 165.642 18.4587 165.642 18.6293 165.642 18.8C 165.642 18.9707 165.632 19.1413 165.61 19.312L 153.578 19.312C 153.6 19.952 153.738 20.56 153.994 21.136C 154.272 21.6907 154.634 22.1813 155.082 22.608C 155.53 23.0133 156.042 23.3333 156.618 23.568C 157.216 23.8027 157.845 23.92 158.506 23.92C 159.53 23.92 160.416 23.696 161.162 23.248C 161.909 22.8 162.496 22.256 162.922 21.616L 165.034 23.312C 164.224 24.3787 163.264 25.168 162.154 25.68C 161.066 26.1707 159.85 26.416 158.506 26.416C 157.354 26.416 156.288 26.224 155.306 25.84C 154.325 25.456 153.482 24.9227 152.778 24.24C 152.074 23.536 151.52 22.6933 151.114 21.712C 150.709 20.7307 150.506 19.6427 150.506 18.448C 150.506 17.2747 150.698 16.1973 151.082 15.216C 151.488 14.2133 152.042 13.36 152.746 12.656C 153.45 11.952 154.282 11.408 155.242 11.024C 156.202 10.6187 157.237 10.416 158.346 10.416C 159.456 10.416 160.458 10.5973 161.354 10.96C 162.272 11.3227 163.04 11.8453 163.658 12.528C 164.298 13.2107 164.789 14.0427 165.13 15.024C 165.472 15.984 165.642 17.072 165.642 18.288ZM 197.426 22.48C 196.53 23.696 195.367 24.688 193.938 25.456C 192.509 26.2027 190.791 26.576 188.786 26.576C 187.058 26.576 185.458 26.288 183.986 25.712C 182.535 25.1147 181.277 24.2933 180.21 23.248C 179.165 22.1813 178.343 20.9227 177.746 19.472C 177.149 18 176.85 16.3893 176.85 14.64C 176.85 12.8693 177.149 11.2587 177.746 9.808C 178.365 8.336 179.207 7.088 180.274 6.064C 181.362 5.01867 182.642 4.208 184.114 3.632C 185.586 3.056 187.186 2.768 188.914 2.768C 189.682 2.768 190.461 2.84267 191.25 2.992C 192.039 3.14133 192.797 3.36533 193.522 3.664C 194.247 3.96267 194.909 4.336 195.506 4.784C 196.103 5.21067 196.615 5.712 197.042 6.288L 194.546 8.208C 193.991 7.44 193.202 6.81067 192.178 6.32C 191.175 5.808 190.087 5.552 188.914 5.552C 187.591 5.552 186.397 5.79733 185.33 6.288C 184.285 6.75733 183.389 7.408 182.642 8.24C 181.895 9.072 181.319 10.0427 180.914 11.152C 180.509 12.24 180.306 13.4027 180.306 14.64C 180.306 15.92 180.498 17.1147 180.882 18.224C 181.287 19.3333 181.853 20.304 182.578 21.136C 183.325 21.9467 184.221 22.5867 185.266 23.056C 186.333 23.5253 187.517 23.76 188.818 23.76C 190.098 23.76 191.261 23.504 192.306 22.992C 193.351 22.48 194.215 21.7333 194.898 20.752L 197.426 22.48ZM 208.407 26L 205.239 26L 205.239 6.128L 197.975 6.128L 197.975 3.344L 215.671 3.344L 215.671 6.128L 208.407 6.128L 208.407 26ZM 217.711 26L 214.191 26L 224.015 3.344L 226.895 3.344L 236.623 26L 233.039 26L 230.735 20.432L 219.983 20.432L 217.711 26ZM 221.103 17.648L 229.583 17.648L 225.359 7.024L 221.103 17.648ZM 246.971 3.344L 254.779 3.344C 255.632 3.344 256.485 3.44 257.339 3.632C 258.192 3.824 258.949 4.144 259.611 4.592C 260.293 5.04 260.837 5.62667 261.243 6.352C 261.669 7.07733 261.883 7.984 261.883 9.072C 261.883 10.3307 261.52 11.3867 260.795 12.24C 260.069 13.0933 259.109 13.68 257.915 14L 257.915 14.064C 258.64 14.1493 259.312 14.3413 259.931 14.64C 260.549 14.9173 261.083 15.2907 261.531 15.76C 261.979 16.2293 262.32 16.784 262.555 17.424C 262.811 18.064 262.939 18.7787 262.939 19.568C 262.939 20.656 262.715 21.6053 262.267 22.416C 261.819 23.2267 261.211 23.8987 260.443 24.432C 259.675 24.944 258.768 25.3387 257.723 25.616C 256.699 25.872 255.6 26 254.427 26L 246.971 26L 246.971 3.344ZM 250.139 12.912L 254.267 12.912C 254.864 12.912 255.429 12.848 255.963 12.72C 256.517 12.5707 256.997 12.3573 257.403 12.08C 257.808 11.7813 258.128 11.4187 258.363 10.992C 258.597 10.544 258.715 10.0107 258.715 9.392C 258.715 8.176 258.267 7.312 257.371 6.8C 256.475 6.26667 255.269 6 253.755 6L 250.139 6L 250.139 12.912ZM 250.139 23.312L 254.107 23.312C 254.768 23.312 255.429 23.2587 256.091 23.152C 256.773 23.024 257.381 22.8107 257.915 22.512C 258.469 22.2133 258.907 21.8187 259.227 21.328C 259.568 20.816 259.739 20.176 259.739 19.408C 259.739 18.064 259.28 17.0933 258.363 16.496C 257.445 15.8987 256.123 15.6 254.395 15.6L 250.139 15.6L 250.139 23.312ZM 278.03 26C 277.987 25.616 277.955 25.1893 277.934 24.72C 277.913 24.2293 277.902 23.824 277.902 23.504L 277.838 23.504C 277.454 24.3147 276.803 25.008 275.886 25.584C 274.99 26.1387 273.987 26.416 272.878 26.416C 271.897 26.416 271.043 26.256 270.318 25.936C 269.614 25.616 269.027 25.1787 268.558 24.624C 268.11 24.048 267.769 23.3867 267.534 22.64C 267.321 21.8933 267.214 21.0933 267.214 20.24L 267.214 10.832L 270.222 10.832L 270.222 19.216C 270.222 19.8347 270.265 20.432 270.35 21.008C 270.457 21.5627 270.638 22.0533 270.894 22.48C 271.15 22.9067 271.502 23.248 271.95 23.504C 272.398 23.76 272.974 23.888 273.678 23.888C 274.894 23.888 275.875 23.44 276.622 22.544C 277.369 21.6267 277.742 20.4107 277.742 18.896L 277.742 10.832L 280.75 10.832L 280.75 22.736C 280.75 23.1413 280.761 23.664 280.782 24.304C 280.803 24.944 280.835 25.5093 280.878 26L 278.03 26ZM 289.007 26L 285.999 26L 285.999 10.832L 289.007 10.832L 289.007 26ZM 289.519 5.36C 289.519 5.91467 289.316 6.37333 288.911 6.736C 288.527 7.09867 288.058 7.28 287.503 7.28C 286.948 7.28 286.479 7.09867 286.095 6.736C 285.711 6.352 285.519 5.89333 285.519 5.36C 285.519 4.80533 285.711 4.34667 286.095 3.984C 286.479 3.6 286.948 3.408 287.503 3.408C 288.058 3.408 288.527 3.6 288.911 3.984C 289.316 4.34667 289.519 4.80533 289.519 5.36ZM 297.32 26L 294.312 26L 294.312 1.808L 297.32 1.808L 297.32 26ZM 314.657 23.6C 314.081 24.5173 313.291 25.2213 312.289 25.712C 311.307 26.1813 310.273 26.416 309.185 26.416C 308.011 26.416 306.955 26.2133 306.017 25.808C 305.078 25.3813 304.278 24.8053 303.617 24.08C 302.955 23.3547 302.443 22.5013 302.081 21.52C 301.718 20.5387 301.537 19.4933 301.537 18.384C 301.537 17.2747 301.718 16.24 302.081 15.28C 302.443 14.2987 302.955 13.4453 303.617 12.72C 304.299 11.9947 305.11 11.4293 306.049 11.024C 306.987 10.6187 308.022 10.416 309.153 10.416C 310.39 10.416 311.467 10.6827 312.385 11.216C 313.302 11.728 314.027 12.3573 314.561 13.104L 314.625 13.104L 314.625 1.808L 317.633 1.808L 317.633 26L 314.721 26L 314.721 23.6L 314.657 23.6ZM 304.673 18.384C 304.673 19.088 304.779 19.7707 304.993 20.432C 305.206 21.0933 305.526 21.68 305.953 22.192C 306.379 22.704 306.902 23.12 307.521 23.44C 308.139 23.7387 308.865 23.888 309.697 23.888C 310.465 23.888 311.158 23.7387 311.777 23.44C 312.417 23.1413 312.961 22.7467 313.409 22.256C 313.857 21.744 314.198 21.1573 314.433 20.496C 314.689 19.8347 314.817 19.1413 314.817 18.416C 314.817 17.6907 314.689 16.9973 314.433 16.336C 314.198 15.6747 313.857 15.088 313.409 14.576C 312.961 14.064 312.417 13.6587 311.777 13.36C 311.158 13.0613 310.465 12.912 309.697 12.912C 308.865 12.912 308.139 13.0613 307.521 13.36C 306.902 13.6587 306.379 14.064 305.953 14.576C 305.526 15.088 305.206 15.6747 304.993 16.336C 304.779 16.9973 304.673 17.68 304.673 18.384ZM 333.977 17.072C 333.956 16.4747 333.849 15.92 333.657 15.408C 333.487 14.8747 333.22 14.416 332.857 14.032C 332.516 13.648 332.079 13.3493 331.545 13.136C 331.033 12.9013 330.425 12.784 329.721 12.784C 329.081 12.784 328.473 12.9013 327.897 13.136C 327.343 13.3493 326.852 13.648 326.425 14.032C 326.02 14.416 325.679 14.8747 325.401 15.408C 325.145 15.92 324.996 16.4747 324.953 17.072L 333.977 17.072ZM 337.017 18.288C 337.017 18.4587 337.017 18.6293 337.017 18.8C 337.017 18.9707 337.007 19.1413 336.985 19.312L 324.953 19.312C 324.975 19.952 325.113 20.56 325.369 21.136C 325.647 21.6907 326.009 22.1813 326.457 22.608C 326.905 23.0133 327.417 23.3333 327.993 23.568C 328.591 23.8027 329.22 23.92 329.881 23.92C 330.905 23.92 331.791 23.696 332.537 23.248C 333.284 22.8 333.871 22.256 334.297 21.616L 336.409 23.312C 335.599 24.3787 334.639 25.168 333.529 25.68C 332.441 26.1707 331.225 26.416 329.881 26.416C 328.729 26.416 327.663 26.224 326.681 25.84C 325.7 25.456 324.857 24.9227 324.153 24.24C 323.449 23.536 322.895 22.6933 322.489 21.712C 322.084 20.7307 321.881 19.6427 321.881 18.448C 321.881 17.2747 322.073 16.1973 322.457 15.216C 322.863 14.2133 323.417 13.36 324.121 12.656C 324.825 11.952 325.657 11.408 326.617 11.024C 327.577 10.6187 328.612 10.416 329.721 10.416C 330.831 10.416 331.833 10.5973 332.729 10.96C 333.647 11.3227 334.415 11.8453 335.033 12.528C 335.673 13.2107 336.164 14.0427 336.505 15.024C 336.847 15.984 337.017 17.072 337.017 18.288ZM 341.217 14.096C 341.217 13.6907 341.206 13.168 341.185 12.528C 341.164 11.888 341.132 11.3227 341.089 10.832L 343.937 10.832C 343.98 11.216 344.012 11.664 344.033 12.176C 344.054 12.6667 344.065 13.072 344.065 13.392L 344.161 13.392C 344.588 12.496 345.206 11.7813 346.017 11.248C 346.849 10.6933 347.777 10.416 348.801 10.416C 349.27 10.416 349.665 10.4587 349.985 10.544L 349.857 13.328C 349.43 13.2213 348.972 13.168 348.481 13.168C 347.756 13.168 347.126 13.3067 346.593 13.584C 346.06 13.84 345.612 14.192 345.249 14.64C 344.908 15.088 344.652 15.6107 344.481 16.208C 344.31 16.784 344.225 17.392 344.225 18.032L 344.225 26L 341.217 26L 341.217 14.096Z"/>
</defs>
</svg>
